# xmcd
#
# Track frame offsets:
#	150
#	11771
#	27919
#	38041
#	53666
#	69736
#	93731
#	105679
#	118981
#	132541
#	148641
#	166406
#	182011
#	194824
#	207536
#
# Disc length: 2955 seconds
#
# Revision: 1
# Processed by: cddbd v1.4PL0 Copyright (c) Steve Scherf et al.
# Submitted via: audiograbber 1.80
#
DISCID=e90b890f
DTITLE=The Rochesters - The Rochesters Live
DYEAR=1900
DGENRE=
TTITLE0=He'll Pilot Me
TTITLE1=God Hath Provided Himself A Lamb
TTITLE2=Nothing In This World
TTITLE3=He's Always There
TTITLE4=Farther On
TTITLE5=Amazing Grace
TTITLE6=He's My Light House
TTITLE7=One Of These Days
TTITLE8=Keep Your Eyes On Jesus
TTITLE9=God Has Been So Good To Me
TTITLE10=Mercy
TTITLE11=The Old Rock Altar
TTITLE12=We Need Revival
TTITLE13=It Was Love
TTITLE14=He Loves Me Like I Was His Only Child
EXTD=Gospel Music
EXTT0=
EXTT1=
EXTT2=
EXTT3=
EXTT4=
EXTT5=
EXTT6=
EXTT7=
EXTT8=
EXTT9=
EXTT10=
EXTT11=
EXTT12=
EXTT13=
EXTT14=
PLAYORDER=
